<svg width="607" height="570" viewBox="0 0 607 570" fill="none" xmlns="http://www.w3.org/2000/svg">
<path d="M264.5 365.5C257.667 350.667 255 333 253.5 331.5L214.5 305.5L222 223.5L248 208L389.5 211C394.833 236 403.4 285 403 287C402.6 289 375.5 321.5 368 329C366.476 339.894 361.881 350.153 357.5 365.5C344.833 376.167 328.9 389.6 326.5 392C324.1 394.4 302.5 395.5 298.5 392C294.5 388.5 278.8 377.242 264.5 365.5Z" fill="#DDB7A5" stroke="black"/>
<path d="M255.022 331C238.121 328.024 230.816 325.281 222.214 318.203H235.337C207.619 305.005 194.585 295.912 178.907 274.578L201.873 277.486C179.829 250.932 174.289 230.218 180.219 179.765C186.617 197.406 190.411 204.987 197.936 210.012C197.498 194.888 197.851 164.792 197.936 163.478C198.61 152.983 216.256 122.308 225.495 121.016C225.758 133.291 225.856 140.695 225.495 159.406H228.776C241.712 124.902 250.859 105.777 296.361 75.0637C300.298 76.8088 282.043 109.811 284.55 114.036C299.007 103.564 306.43 96.4855 318.671 82.0438C326.702 66.8129 328.527 57.2588 328.514 39L343.606 57.6135C349.905 71.6656 353.31 78.3438 360.666 102.402C363.31 117.161 364.823 126.479 367.228 133.231C374.688 123.474 377.102 116.907 379.695 104.147C390.904 121.151 396.169 132.553 402.005 159.406L400.036 182.673C414.562 173.429 421.82 167.197 432.189 153.008C435.037 169.877 435.788 180.161 435.47 200.124C429.828 215.256 424.858 222.384 415.128 234.442L441.375 222.809C436.713 245.051 429.694 254.228 413.16 267.598C424.201 266.648 431.213 262.794 444 254.801C434.891 271.951 425.396 281.635 400.036 299.008C400.036 299.008 388.882 305.988 388.225 308.315C387.569 310.641 394.787 308.315 394.787 308.315C387.998 318.667 382.211 324.648 368.622 328.477C368.556 328.69 367.581 329.849 368 326.5C368.5 322.5 382.706 308.696 393.787 297.763C397.321 286.527 398.706 280.357 392.819 272.833C386.09 273.494 383.837 276.206 381.664 283.884C379.695 285.048 376.573 270.601 371.165 267.598C370.508 265.853 379.695 264.689 379.695 264.689C381.909 255.767 382.702 250.431 381.664 239.096C381.043 228.004 365.57 197.926 346.887 225.135C328.203 252.345 317.676 263.022 314.734 283.884C300.739 263.098 292.752 251.351 276.676 229.207C267.635 218.771 261.943 215.238 249.773 216.41C242.084 219.41 239.136 223.775 235.337 234.442C232.308 255.184 236.77 262.017 246.492 272.833L241.243 287.956C233.813 280.31 229.646 276.36 222.214 274.578C219.859 276.732 218.472 277.819 217.621 282.721C221.157 293.488 223.283 299.04 228.119 305.406C235.767 315.096 241.053 319.842 255.022 325.183V331Z" fill="black"/>
<path d="M353.564 294.355L320.099 312.968L316.819 310.06L331.911 299.008L353.564 282.721L360.126 283.884L368 287.956V297.263C368 298.194 367.125 298.426 366.688 298.426L360.126 294.355H353.564Z" fill="black"/>
<path d="M303.579 309.478C302.923 310.448 301.611 312.503 301.611 312.968L297.017 310.641L283.238 300.171L264.865 286.793L249.773 287.956L250.429 282.721C251.304 280.976 253.316 277.253 254.366 276.323C255.416 275.392 260.928 275.935 263.553 276.323L273.395 283.884L303.579 309.478Z" fill="black"/>
<path d="M255.022 331C238.121 328.024 230.816 325.281 222.214 318.203H235.337C207.619 305.005 194.585 295.912 178.907 274.578L201.873 277.486C179.829 250.932 174.289 230.218 180.219 179.765C186.617 197.406 190.411 204.987 197.936 210.012C197.498 194.888 197.851 164.792 197.936 163.478C198.61 152.983 216.256 122.308 225.495 121.016C225.758 133.291 225.856 140.695 225.495 159.406H228.776C241.712 124.902 250.859 105.777 296.361 75.0637C300.298 76.8088 282.043 109.811 284.55 114.036C299.007 103.564 306.43 96.4855 318.671 82.0438C326.702 66.8129 328.527 57.2588 328.514 39L343.606 57.6135C349.905 71.6656 353.31 78.3438 360.666 102.402C363.31 117.161 364.823 126.479 367.228 133.231C374.688 123.474 377.102 116.907 379.695 104.147C390.904 121.151 396.169 132.553 402.005 159.406L400.036 182.673C414.562 173.429 421.82 167.197 432.189 153.008C435.037 169.877 435.788 180.161 435.47 200.124C429.828 215.256 424.858 222.384 415.128 234.442L441.375 222.809C436.713 245.051 429.694 254.228 413.16 267.598C424.201 266.648 431.213 262.794 444 254.801C434.891 271.951 425.396 281.635 400.036 299.008C400.036 299.008 388.882 305.988 388.225 308.315C387.569 310.641 394.787 308.315 394.787 308.315C387.984 318.687 382.188 324.672 368.54 328.5C368.987 328.07 367.5 330.5 368 326.5C368.5 322.5 382.706 308.696 393.787 297.763C397.321 286.527 398.706 280.357 392.819 272.833C386.09 273.494 383.837 276.206 381.664 283.884C379.695 285.048 376.573 270.601 371.165 267.598C370.508 265.853 379.695 264.689 379.695 264.689C381.909 255.767 382.702 250.431 381.664 239.096C381.043 228.004 365.57 197.926 346.887 225.135C328.203 252.345 317.676 263.022 314.734 283.884C300.739 263.098 292.752 251.351 276.676 229.207C267.635 218.771 261.943 215.238 249.773 216.41C242.084 219.41 239.136 223.775 235.337 234.442C232.308 255.184 236.77 262.017 246.492 272.833L241.243 287.956C233.813 280.31 229.646 276.36 222.214 274.578C219.859 276.732 218.472 277.819 217.621 282.721C221.157 293.488 223.283 299.04 228.119 305.406C235.767 315.096 241.053 319.842 255.022 325.183V331ZM320.099 312.968L353.564 294.355H360.126L366.688 298.426C367.125 298.426 368 298.194 368 297.263C368 296.332 368 290.671 368 287.956L360.126 283.884L353.564 282.721L331.911 299.008L316.819 310.06L320.099 312.968ZM301.611 312.968C301.611 312.503 302.923 310.448 303.579 309.478L273.395 283.884L263.553 276.323C260.928 275.935 255.416 275.392 254.366 276.323C253.316 277.253 251.304 280.976 250.429 282.721L249.773 287.956L264.865 286.793L283.238 300.171L297.017 310.641L301.611 312.968Z" stroke="black"/>
</svg>
